<?xml version="1.0" encoding="UTF-8" standalone="no"?>
<!-- Created with Inkscape (http://www.inkscape.org/) -->

<svg
   xmlns:osb="http://www.openswatchbook.org/uri/2009/osb"
   xmlns:dc="http://purl.org/dc/elements/1.1/"
   xmlns:cc="http://creativecommons.org/ns#"
   xmlns:rdf="http://www.w3.org/1999/02/22-rdf-syntax-ns#"
   xmlns:svg="http://www.w3.org/2000/svg"
   xmlns="http://www.w3.org/2000/svg"
   xmlns:sodipodi="http://sodipodi.sourceforge.net/DTD/sodipodi-0.dtd"
   xmlns:inkscape="http://www.inkscape.org/namespaces/inkscape"
   width="297mm"
   height="210mm"
   viewBox="0 0 1052.3622 744.09448"
   id="svg2"
   version="1.1"
   inkscape:version="0.91 r13725"
   sodipodi:docname="stevemcquizz2.svg">
  <defs
     id="defs4">
    <inkscape:path-effect
       effect="bend_path"
       id="path-effect6066"
       is_visible="true"
       bendpath="m 668.57143,923.79077 202.85714,0"
       prop_scale="13"
       scale_y_rel="false"
       vertical="false" />
    <linearGradient
       id="linearGradient4594"
       osb:paint="solid">
      <stop
         style="stop-color:#000000;stop-opacity:1;"
         offset="0"
         id="stop4596" />
    </linearGradient>
    <inkscape:path-effect
       effect="ruler"
       id="path-effect4592"
       is_visible="true"
       unit="px"
       mark_distance="20"
       mark_length="14"
       minor_mark_length="7"
       major_mark_steps="5"
       shift="0"
       offset="0"
       mark_dir="left"
       border_marks="both" />
    <inkscape:path-effect
       effect="envelope"
       id="path-effect4590"
       is_visible="true"
       yy="true"
       xx="true"
       bendpath1="m 634.28571,951.63363 262.85715,0"
       bendpath2="M 897.14286,951.63363 Z"
       bendpath3="m 634.28571,951.63363 262.85715,0"
       bendpath4="M 634.28571,951.63363 Z" />
    <inkscape:path-effect
       effect="bend_path"
       id="path-effect4588"
       is_visible="true"
       bendpath="m 634.28571,951.63363 262.85715,0"
       prop_scale="13"
       scale_y_rel="true"
       vertical="false" />
    <inkscape:path-effect
       effect="bend_path"
       id="path-effect4350"
       is_visible="true"
       bendpath="m 690.04091,619.3158 66.72682,0"
       prop_scale="1.05"
       scale_y_rel="false"
       vertical="false" />
  </defs>
  <sodipodi:namedview
     id="base"
     pagecolor="#ffffff"
     bordercolor="#666666"
     borderopacity="1.0"
     inkscape:pageopacity="0.11372549"
     inkscape:pageshadow="2"
     inkscape:zoom="0.35"
     inkscape:cx="366.41512"
     inkscape:cy="494.20161"
     inkscape:document-units="px"
     inkscape:current-layer="layer1"
     showgrid="false"
     inkscape:window-width="1920"
     inkscape:window-height="1016"
     inkscape:window-x="0"
     inkscape:window-y="27"
     inkscape:window-maximized="1"
     borderlayer="false" />
  <metadata
     id="metadata7">
    <rdf:RDF>
      <cc:Work
         rdf:about="">
        <dc:format>image/svg+xml</dc:format>
        <dc:type
           rdf:resource="http://purl.org/dc/dcmitype/StillImage" />
        <dc:title></dc:title>
      </cc:Work>
    </rdf:RDF>
  </metadata>
  <g
     inkscape:label="Layer 1"
     inkscape:groupmode="layer"
     id="layer1"
     transform="translate(0,-308.26772)">
    <g
       transform="matrix(-0.66889502,2.9383949,-2.7603522,-0.71203872,1896.9671,573.31091)"
       style="font-style:normal;font-weight:normal;font-size:250px;line-height:142.99999475%;font-family:sans-serif;letter-spacing:0px;word-spacing:0px;fill:#d4aa00;fill-opacity:1;stroke:none;stroke-width:1px;stroke-linecap:butt;stroke-linejoin:miter;stroke-opacity:1"
       id="flowRoot3336">
      <path
         d="m 151.42773,497.82369 c 0,-15 2.25,-30.25 7.25,-45.5 4.5,-14.5 11.5,-26 21,-34.5 9,-9 13.5,-21.25 13.5,-36.75 0,-16 -5.75,-29.75 -17.25,-41 -9.75,-9 -20.75,-13.5 -32.75,-13.5 -12.75,0 -23.25,4.25 -31.75,12.25 -9.5,9 -15.249996,19.75 -17.249996,32.25 2.5,1 5.25,1.5 7.749996,1.75 2.5,0.5 5.5,0.75 8.5,1 1.25,-8.5 5.25,-16 12,-22.75 5.5,-5 12.5,-7.75 20.75,-7.75 7.5,0 14.5,2.75 21,8.25 8,9 12.25,19 12.25,29.5 0,11 -3.5,19.75 -10.5,26.75 -10.25,10.5 -18,23.75 -23.5,40 -5.25,16.5 -7.75,33 -7.75,50 l 0,3.25 16.75,0 0,-3.25 z m -7.75,45.5 c 8.5,0 12.75,-4.25 12.75,-12.75 0,-8 -4.25,-12.25 -12.75,-12.25 -8.5,0 -12.75,4.25 -12.75,12.25 0,3.5 1,6.5 3.5,9 2.5,2.5 5.5,3.75 9.25,3.75 z"
         style="font-style:normal;font-variant:normal;font-weight:normal;font-stretch:normal;font-size:250px;line-height:142.99999475%;font-family:'Vintage Avalanche';-inkscape-font-specification:'Vintage Avalanche';letter-spacing:14.54998207px;fill:#d4aa00"
         id="path4559" />
    </g>
    <flowRoot
       xml:space="preserve"
       id="flowRoot3344"
       style="font-style:normal;font-weight:normal;font-size:40px;line-height:125%;font-family:sans-serif;letter-spacing:16.05999947px;word-spacing:0px;fill:#000000;fill-opacity:1;stroke:none;stroke-width:1px;stroke-linecap:butt;stroke-linejoin:miter;stroke-opacity:1"><flowRegion
         id="flowRegion3346"><rect
           id="rect3348"
           width="45.714287"
           height="71.428574"
           x="754.28571"
           y="1166.6479" /></flowRegion><flowPara
         id="flowPara3350"></flowPara></flowRoot>    <g
       transform="matrix(0.73994009,2.7369275,2.5710921,-0.78766619,-754.32167,635.97613)"
       style="font-style:normal;font-weight:normal;font-size:250px;line-height:142.99999475%;font-family:sans-serif;letter-spacing:0px;word-spacing:52.11000061px;writing-mode:lr-tb;fill:#aa8800;fill-opacity:1;stroke:none;stroke-width:1px;stroke-linecap:butt;stroke-linejoin:miter;stroke-opacity:1"
       id="flowRoot3352">
      <path
         d="m 151.42773,497.82369 c 0,-15 2.25,-30.25 7.25,-45.5 4.5,-14.5 11.5,-26 21,-34.5 9,-9 13.5,-21.25 13.5,-36.75 0,-16 -5.75,-29.75 -17.25,-41 -9.75,-9 -20.75,-13.5 -32.75,-13.5 -12.75,0 -23.25,4.25 -31.75,12.25 -9.5,9 -15.249996,19.75 -17.249996,32.25 2.5,1 5.25,1.5 7.749996,1.75 2.5,0.5 5.5,0.75 8.5,1 1.25,-8.5 5.25,-16 12,-22.75 5.5,-5 12.5,-7.75 20.75,-7.75 7.5,0 14.5,2.75 21,8.25 8,9 12.25,19 12.25,29.5 0,11 -3.5,19.75 -10.5,26.75 -10.25,10.5 -18,23.75 -23.5,40 -5.25,16.5 -7.75,33 -7.75,50 l 0,3.25 16.75,0 0,-3.25 z m -7.75,45.5 c 8.5,0 12.75,-4.25 12.75,-12.75 0,-8 -4.25,-12.25 -12.75,-12.25 -8.5,0 -12.75,4.25 -12.75,12.25 0,3.5 1,6.5 3.5,9 2.5,2.5 5.5,3.75 9.25,3.75 z"
         style="font-style:normal;font-variant:normal;font-weight:normal;font-stretch:normal;font-size:250px;line-height:142.99999475%;font-family:'Vintage Avalanche';-inkscape-font-specification:'Vintage Avalanche';letter-spacing:14.54998207px;word-spacing:52.11000061px;writing-mode:lr-tb;fill:#aa8800"
         id="path4556" />
    </g>
    <path
       style="fill:#aa8800;fill-rule:evenodd;stroke:#aa8800;stroke-width:33.90027237;stroke-linecap:butt;stroke-linejoin:miter;stroke-miterlimit:4;stroke-dasharray:none;stroke-opacity:1"
       d="M 756.76773,733.91965 690.04091,504.71195"
       id="path3364" />
    <path
       style="fill:none;fill-rule:evenodd;stroke:#aa8800;stroke-width:33.90027237;stroke-linecap:butt;stroke-linejoin:miter;stroke-miterlimit:4;stroke-dasharray:none;stroke-opacity:1"
       d="m 615.22514,515.82466 91.72969,0"
       id="path4352"
       inkscape:connector-curvature="0" />
    <path
       style="fill:none;fill-rule:evenodd;stroke:#d4aa00;stroke-width:33.90027237;stroke-linecap:butt;stroke-linejoin:miter;stroke-miterlimit:4;stroke-dasharray:none;stroke-opacity:1"
       d="m 345.78892,565.29134 152.88279,0 45.86484,48.82312"
       id="path4354"
       inkscape:connector-curvature="0" />
    <rect
       style="opacity:0;fill:#554400;stroke:#000000;stroke-width:10.19999981;stroke-miterlimit:4;stroke-dasharray:none;stroke-opacity:1;fill-opacity:0.32156864"
       id="rect6044"
       width="294.28571"
       height="37.142857"
       x="625.71429"
       y="912.36218" />
    <path
       style="fill:#806600;fill-rule:evenodd;stroke:#806600;stroke-width:10.31955147;stroke-linecap:butt;stroke-linejoin:miter;stroke-miterlimit:4;stroke-dasharray:none;stroke-opacity:1"
       d="m 845.71428,898.07649 131.42857,0"
       id="path6069"
       inkscape:connector-curvature="0" />
    <path
       style="fill:#806600;fill-rule:evenodd;stroke:#806600;stroke-width:13;stroke-linecap:butt;stroke-linejoin:miter;stroke-miterlimit:4;stroke-dasharray:none;stroke-opacity:1"
       d="m 532.85713,926.64792 208.57143,0"
       id="path6069-6"
       inkscape:connector-curvature="0" />
    <path
       style="fill:#806600;fill-rule:evenodd;stroke:#806600;stroke-width:10.65074444;stroke-linecap:butt;stroke-linejoin:miter;stroke-miterlimit:4;stroke-dasharray:none;stroke-opacity:1"
       d="m 30,836.3623 140,0"
       id="path6069-7"
       inkscape:connector-curvature="0" />
    <path
       style="fill:#806600;fill-rule:evenodd;stroke:#806600;stroke-width:10.54150295;stroke-linecap:butt;stroke-linejoin:miter;stroke-miterlimit:4;stroke-dasharray:none;stroke-opacity:1"
       d="m 61.428571,869.50507 137.142859,0"
       id="path6069-6-5"
       inkscape:connector-curvature="0" />
    <path
       style="fill:#806600;fill-rule:evenodd;stroke:#806600;stroke-width:9.50198269;stroke-linecap:butt;stroke-linejoin:miter;stroke-miterlimit:4;stroke-dasharray:none;stroke-opacity:1"
       d="m 321.42857,893.79079 111.42857,0"
       id="path6069-6-3"
       inkscape:connector-curvature="0" />
  </g>
</svg>
